<mxfile host="app.diagrams.net" modified="2023-09-10T13:48:27.239Z" agent="Mozilla/5.0 (Windows NT 10.0; Win64; x64) AppleWebKit/537.36 (KHTML, like Gecko) Chrome/116.0.0.0 Safari/537.36" etag="SqeeAhdyKylb_rT9PlfN" version="21.7.4" type="github">
  <diagram id="prtHgNgQTEPvFCAcTncT" name="Page-1">
    <mxGraphModel dx="1434" dy="768" grid="1" gridSize="10" guides="1" tooltips="1" connect="1" arrows="1" fold="1" page="1" pageScale="1" pageWidth="827" pageHeight="1169" math="0" shadow="0">
      <root>
        <mxCell id="0" />
        <mxCell id="1" parent="0" />
        <mxCell id="buX2rn0j0Ipx8Q19kB1j-3" style="edgeStyle=orthogonalEdgeStyle;rounded=0;orthogonalLoop=1;jettySize=auto;html=1;entryX=0.5;entryY=0;entryDx=0;entryDy=0;endArrow=none;endFill=0;" edge="1" parent="1" source="buX2rn0j0Ipx8Q19kB1j-1" target="buX2rn0j0Ipx8Q19kB1j-15">
          <mxGeometry relative="1" as="geometry">
            <mxPoint x="200" y="450" as="targetPoint" />
          </mxGeometry>
        </mxCell>
        <mxCell id="buX2rn0j0Ipx8Q19kB1j-1" value="&lt;font style=&quot;font-size: 16px;&quot;&gt;歩兵旅団戦闘団&lt;/font&gt;" style="rounded=0;whiteSpace=wrap;html=1;" vertex="1" parent="1">
          <mxGeometry x="210" y="40" width="220" height="60" as="geometry" />
        </mxCell>
        <mxCell id="buX2rn0j0Ipx8Q19kB1j-7" style="edgeStyle=orthogonalEdgeStyle;rounded=0;orthogonalLoop=1;jettySize=auto;html=1;endArrow=none;endFill=0;" edge="1" parent="1" source="buX2rn0j0Ipx8Q19kB1j-4" target="buX2rn0j0Ipx8Q19kB1j-6">
          <mxGeometry relative="1" as="geometry" />
        </mxCell>
        <mxCell id="buX2rn0j0Ipx8Q19kB1j-9" style="edgeStyle=orthogonalEdgeStyle;rounded=0;orthogonalLoop=1;jettySize=auto;html=1;entryX=0.5;entryY=0;entryDx=0;entryDy=0;endArrow=none;endFill=0;" edge="1" parent="1" source="buX2rn0j0Ipx8Q19kB1j-4" target="buX2rn0j0Ipx8Q19kB1j-8">
          <mxGeometry relative="1" as="geometry" />
        </mxCell>
        <mxCell id="buX2rn0j0Ipx8Q19kB1j-11" style="edgeStyle=orthogonalEdgeStyle;rounded=0;orthogonalLoop=1;jettySize=auto;html=1;entryX=0.5;entryY=0;entryDx=0;entryDy=0;endArrow=none;endFill=0;" edge="1" parent="1" source="buX2rn0j0Ipx8Q19kB1j-4" target="buX2rn0j0Ipx8Q19kB1j-10">
          <mxGeometry relative="1" as="geometry" />
        </mxCell>
        <mxCell id="buX2rn0j0Ipx8Q19kB1j-14" style="edgeStyle=orthogonalEdgeStyle;rounded=0;orthogonalLoop=1;jettySize=auto;html=1;entryX=0.5;entryY=1;entryDx=0;entryDy=0;endArrow=none;endFill=0;" edge="1" parent="1" source="buX2rn0j0Ipx8Q19kB1j-4" target="buX2rn0j0Ipx8Q19kB1j-1">
          <mxGeometry relative="1" as="geometry" />
        </mxCell>
        <mxCell id="buX2rn0j0Ipx8Q19kB1j-4" value="&lt;font style=&quot;font-size: 14px;&quot;&gt;旅団司令部&lt;br&gt;及び本部中隊&lt;/font&gt;" style="rounded=0;whiteSpace=wrap;html=1;" vertex="1" parent="1">
          <mxGeometry x="490" y="130" width="120" height="60" as="geometry" />
        </mxCell>
        <mxCell id="buX2rn0j0Ipx8Q19kB1j-6" value="旅団司令部(MBCP)" style="rounded=0;whiteSpace=wrap;html=1;" vertex="1" parent="1">
          <mxGeometry x="414" y="310" width="120" height="60" as="geometry" />
        </mxCell>
        <mxCell id="buX2rn0j0Ipx8Q19kB1j-8" value="旅団戦術司令部&lt;br/&gt;(BTAC CP)" style="rounded=0;whiteSpace=wrap;html=1;" vertex="1" parent="1">
          <mxGeometry x="570" y="310" width="120" height="60" as="geometry" />
        </mxCell>
        <mxCell id="buX2rn0j0Ipx8Q19kB1j-10" value="旅団火力支援司令部&lt;br/&gt;(BFS CP)" style="rounded=0;whiteSpace=wrap;html=1;" vertex="1" parent="1">
          <mxGeometry x="490" y="380" width="120" height="60" as="geometry" />
        </mxCell>
        <mxCell id="buX2rn0j0Ipx8Q19kB1j-18" style="edgeStyle=orthogonalEdgeStyle;rounded=0;orthogonalLoop=1;jettySize=auto;html=1;entryX=0.5;entryY=0;entryDx=0;entryDy=0;endArrow=none;endFill=0;" edge="1" parent="1" source="buX2rn0j0Ipx8Q19kB1j-15" target="buX2rn0j0Ipx8Q19kB1j-17">
          <mxGeometry relative="1" as="geometry" />
        </mxCell>
        <mxCell id="buX2rn0j0Ipx8Q19kB1j-15" value="&lt;font style=&quot;font-size: 16px;&quot;&gt;歩兵大隊&lt;/font&gt;" style="rounded=0;whiteSpace=wrap;html=1;" vertex="1" parent="1">
          <mxGeometry x="100" y="300" width="120" height="60" as="geometry" />
        </mxCell>
        <mxCell id="buX2rn0j0Ipx8Q19kB1j-17" value="&lt;font style=&quot;font-size: 14px;&quot;&gt;歩兵中隊&lt;/font&gt;" style="rounded=0;whiteSpace=wrap;html=1;" vertex="1" parent="1">
          <mxGeometry x="100" y="470" width="120" height="60" as="geometry" />
        </mxCell>
      </root>
    </mxGraphModel>
  </diagram>
</mxfile>
